<svg width="221" height="48" viewBox="0 0 221 48" fill="none" xmlns="http://www.w3.org/2000/svg">
    <circle cx="21.3835" cy="26.3503" r="17.3191" fill="#FE9252" />
    <path fill-rule="evenodd" clip-rule="evenodd"
        d="M7.77836 37.0477C10.3425 37.58 13.0666 37.5367 15.7687 36.8127C25.0079 34.3371 30.4908 24.8404 28.0152 15.6012C27.3885 13.2626 26.3121 11.1647 24.9038 9.37553C31.1069 10.6633 36.3733 15.32 38.1249 21.857C40.6005 31.0961 35.1176 40.5928 25.8785 43.0684C18.9779 44.9174 11.9337 42.3269 7.77836 37.0477Z"
        fill="#DE702F" />
    <path d="M26.5942 6.61719L5.34375 37.7844L41.7056 29.6384L26.5942 6.61719Z" stroke="#3B3B3B"
        stroke-width="3" />
    <circle cx="5.78711" cy="37.7812" r="5.375" fill="#3B3B3B" />
    <circle cx="41.3496" cy="29.1719" r="5.375" fill="#3B3B3B" />
    <circle cx="26.2324" cy="6.85156" r="5.375" fill="#3B3B3B" />
    <path fill-rule="evenodd" clip-rule="evenodd"
        d="M22.0179 10.1655C22.8132 10.3305 23.658 10.317 24.4961 10.0924C27.3626 9.32432 29.0638 6.37787 28.2957 3.51134C28.101 2.78483 27.7664 2.13319 27.3287 1.57762C29.2536 1.97691 30.888 3.42181 31.4315 5.4503C32.1996 8.31684 30.4985 11.2633 27.6319 12.0314C25.4919 12.6048 23.3073 11.802 22.0179 10.1655Z"
        fill="black" />
    <path fill-rule="evenodd" clip-rule="evenodd"
        d="M37.1956 32.5171C37.9909 32.682 38.8358 32.6685 39.6738 32.444C42.5404 31.6759 44.2415 28.7294 43.4734 25.8629C43.2787 25.1364 42.9441 24.4847 42.5064 23.9292C44.4314 24.3285 46.0657 25.7734 46.6093 27.8019C47.3773 30.6684 45.6762 33.6148 42.8097 34.3829C40.6696 34.9564 38.4851 34.1536 37.1956 32.5171Z"
        fill="black" />
    <path fill-rule="evenodd" clip-rule="evenodd"
        d="M1.79132 41.2671C2.58659 41.432 3.43148 41.4185 4.26952 41.194C7.13606 40.4259 8.83719 37.4794 8.0691 34.6129C7.87444 33.8864 7.53984 33.2347 7.10209 32.6792C9.02706 33.0785 10.6614 34.5234 11.205 36.5519C11.973 39.4184 10.2719 42.3648 7.40538 43.1329C5.26535 43.7064 3.08078 42.9036 1.79132 41.2671Z"
        fill="black" />
    <path
        d="M63.456 32.168C61.872 32.168 60.416 31.8 59.088 31.064C57.776 30.328 56.728 29.304 55.944 27.992C55.176 26.664 54.792 25.176 54.792 23.528C54.792 21.88 55.176 20.4 55.944 19.088C56.728 17.776 57.776 16.752 59.088 16.016C60.416 15.28 61.872 14.912 63.456 14.912C65.04 14.912 66.488 15.28 67.8 16.016C69.128 16.752 70.168 17.776 70.92 19.088C71.688 20.4 72.072 21.88 72.072 23.528C72.072 25.176 71.688 26.664 70.92 27.992C70.152 29.304 69.112 30.328 67.8 31.064C66.488 31.8 65.04 32.168 63.456 32.168ZM63.456 28.424C64.8 28.424 65.872 27.976 66.672 27.08C67.488 26.184 67.896 25 67.896 23.528C67.896 22.04 67.488 20.856 66.672 19.976C65.872 19.08 64.8 18.632 63.456 18.632C62.096 18.632 61.008 19.072 60.192 19.952C59.392 20.832 58.992 22.024 58.992 23.528C58.992 25.016 59.392 26.208 60.192 27.104C61.008 27.984 62.096 28.424 63.456 28.424ZM78.4592 20.504C78.8592 19.88 79.4112 19.376 80.1152 18.992C80.8192 18.608 81.6432 18.416 82.5872 18.416C83.6912 18.416 84.6912 18.696 85.5872 19.256C86.4832 19.816 87.1872 20.616 87.6992 21.656C88.2272 22.696 88.4912 23.904 88.4912 25.28C88.4912 26.656 88.2272 27.872 87.6992 28.928C87.1872 29.968 86.4832 30.776 85.5872 31.352C84.6912 31.912 83.6912 32.192 82.5872 32.192C81.6592 32.192 80.8352 32 80.1152 31.616C79.4112 31.232 78.8592 30.736 78.4592 30.128V38.384H74.3552V18.608H78.4592V20.504ZM84.3152 25.28C84.3152 24.256 84.0272 23.456 83.4512 22.88C82.8912 22.288 82.1952 21.992 81.3632 21.992C80.5472 21.992 79.8512 22.288 79.2752 22.88C78.7152 23.472 78.4352 24.28 78.4352 25.304C78.4352 26.328 78.7152 27.136 79.2752 27.728C79.8512 28.32 80.5472 28.616 81.3632 28.616C82.1792 28.616 82.8752 28.32 83.4512 27.728C84.0272 27.12 84.3152 26.304 84.3152 25.28ZM98.1083 28.52V32H96.0203C94.5323 32 93.3723 31.64 92.5403 30.92C91.7083 30.184 91.2923 28.992 91.2923 27.344V22.016H89.6603V18.608H91.2923V15.344H95.3963V18.608H98.0843V22.016H95.3963V27.392C95.3963 27.792 95.4923 28.08 95.6843 28.256C95.8763 28.432 96.1963 28.52 96.6443 28.52H98.1083ZM102.458 17.216C101.738 17.216 101.146 17.008 100.682 16.592C100.234 16.16 100.01 15.632 100.01 15.008C100.01 14.368 100.234 13.84 100.682 13.424C101.146 12.992 101.738 12.776 102.458 12.776C103.162 12.776 103.738 12.992 104.186 13.424C104.65 13.84 104.882 14.368 104.882 15.008C104.882 15.632 104.65 16.16 104.186 16.592C103.738 17.008 103.162 17.216 102.458 17.216ZM104.498 18.608V32H100.394V18.608H104.498ZM124.56 18.464C126.224 18.464 127.544 18.968 128.52 19.976C129.512 20.984 130.008 22.384 130.008 24.176V32H125.928V24.728C125.928 23.864 125.696 23.2 125.232 22.736C124.784 22.256 124.16 22.016 123.36 22.016C122.56 22.016 121.928 22.256 121.464 22.736C121.016 23.2 120.792 23.864 120.792 24.728V32H116.712V24.728C116.712 23.864 116.48 23.2 116.016 22.736C115.568 22.256 114.944 22.016 114.144 22.016C113.344 22.016 112.712 22.256 112.248 22.736C111.8 23.2 111.576 23.864 111.576 24.728V32H107.472V18.608H111.576V20.288C111.992 19.728 112.536 19.288 113.208 18.968C113.88 18.632 114.64 18.464 115.488 18.464C116.496 18.464 117.392 18.68 118.176 19.112C118.976 19.544 119.6 20.16 120.048 20.96C120.512 20.224 121.144 19.624 121.944 19.16C122.744 18.696 123.616 18.464 124.56 18.464ZM134.943 17.216C134.223 17.216 133.631 17.008 133.167 16.592C132.719 16.16 132.495 15.632 132.495 15.008C132.495 14.368 132.719 13.84 133.167 13.424C133.631 12.992 134.223 12.776 134.943 12.776C135.647 12.776 136.223 12.992 136.671 13.424C137.135 13.84 137.367 14.368 137.367 15.008C137.367 15.632 137.135 16.16 136.671 16.592C136.223 17.008 135.647 17.216 134.943 17.216ZM136.983 18.608V32H132.879V18.608H136.983ZM143.797 28.616H149.605V32H139.213V28.736L144.781 21.992H139.261V18.608H149.485V21.872L143.797 28.616ZM164.487 25.088C164.487 25.472 164.463 25.872 164.415 26.288H155.127C155.191 27.12 155.455 27.76 155.919 28.208C156.399 28.64 156.983 28.856 157.671 28.856C158.695 28.856 159.407 28.424 159.807 27.56H164.175C163.951 28.44 163.543 29.232 162.951 29.936C162.375 30.64 161.647 31.192 160.767 31.592C159.887 31.992 158.903 32.192 157.815 32.192C156.503 32.192 155.335 31.912 154.311 31.352C153.287 30.792 152.487 29.992 151.911 28.952C151.335 27.912 151.047 26.696 151.047 25.304C151.047 23.912 151.327 22.696 151.887 21.656C152.463 20.616 153.263 19.816 154.287 19.256C155.311 18.696 156.487 18.416 157.815 18.416C159.111 18.416 160.263 18.688 161.271 19.232C162.279 19.776 163.063 20.552 163.623 21.56C164.199 22.568 164.487 23.744 164.487 25.088ZM160.287 24.008C160.287 23.304 160.047 22.744 159.567 22.328C159.087 21.912 158.487 21.704 157.767 21.704C157.079 21.704 156.495 21.904 156.015 22.304C155.551 22.704 155.263 23.272 155.151 24.008H160.287ZM169.196 30.224H175.052V32H167.012V15.272H169.196V30.224ZM176.555 25.376C176.555 24.032 176.827 22.856 177.371 21.848C177.915 20.824 178.659 20.032 179.603 19.472C180.563 18.912 181.627 18.632 182.795 18.632C183.947 18.632 184.947 18.88 185.795 19.376C186.643 19.872 187.275 20.496 187.691 21.248V18.848H189.899V32H187.691V29.552C187.259 30.32 186.611 30.96 185.747 31.472C184.899 31.968 183.907 32.216 182.771 32.216C181.603 32.216 180.547 31.928 179.603 31.352C178.659 30.776 177.915 29.968 177.371 28.928C176.827 27.888 176.555 26.704 176.555 25.376ZM187.691 25.4C187.691 24.408 187.491 23.544 187.091 22.808C186.691 22.072 186.147 21.512 185.459 21.128C184.787 20.728 184.043 20.528 183.227 20.528C182.411 20.528 181.667 20.72 180.995 21.104C180.323 21.488 179.787 22.048 179.387 22.784C178.987 23.52 178.787 24.384 178.787 25.376C178.787 26.384 178.987 27.264 179.387 28.016C179.787 28.752 180.323 29.32 180.995 29.72C181.667 30.104 182.411 30.296 183.227 30.296C184.043 30.296 184.787 30.104 185.459 29.72C186.147 29.32 186.691 28.752 187.091 28.016C187.491 27.264 187.691 26.392 187.691 25.4ZM195.774 21.296C196.222 20.512 196.878 19.872 197.742 19.376C198.606 18.88 199.59 18.632 200.694 18.632C201.878 18.632 202.942 18.912 203.886 19.472C204.83 20.032 205.574 20.824 206.118 21.848C206.662 22.856 206.934 24.032 206.934 25.376C206.934 26.704 206.662 27.888 206.118 28.928C205.574 29.968 204.822 30.776 203.862 31.352C202.918 31.928 201.862 32.216 200.694 32.216C199.558 32.216 198.558 31.968 197.694 31.472C196.846 30.976 196.206 30.344 195.774 29.576V32H193.59V14.24H195.774V21.296ZM204.702 25.376C204.702 24.384 204.502 23.52 204.102 22.784C203.702 22.048 203.158 21.488 202.47 21.104C201.798 20.72 201.054 20.528 200.238 20.528C199.438 20.528 198.694 20.728 198.006 21.128C197.334 21.512 196.79 22.08 196.374 22.832C195.974 23.568 195.774 24.424 195.774 25.4C195.774 26.392 195.974 27.264 196.374 28.016C196.79 28.752 197.334 29.32 198.006 29.72C198.694 30.104 199.438 30.296 200.238 30.296C201.054 30.296 201.798 30.104 202.47 29.72C203.158 29.32 203.702 28.752 204.102 28.016C204.502 27.264 204.702 26.384 204.702 25.376ZM214.465 32.216C213.457 32.216 212.553 32.048 211.753 31.712C210.953 31.36 210.321 30.88 209.857 30.272C209.393 29.648 209.137 28.936 209.089 28.136H211.345C211.409 28.792 211.713 29.328 212.257 29.744C212.817 30.16 213.545 30.368 214.441 30.368C215.273 30.368 215.929 30.184 216.409 29.816C216.889 29.448 217.129 28.984 217.129 28.424C217.129 27.848 216.873 27.424 216.361 27.152C215.849 26.864 215.057 26.584 213.985 26.312C213.009 26.056 212.209 25.8 211.585 25.544C210.977 25.272 210.449 24.88 210.001 24.368C209.569 23.84 209.353 23.152 209.353 22.304C209.353 21.632 209.553 21.016 209.953 20.456C210.353 19.896 210.921 19.456 211.657 19.136C212.393 18.8 213.233 18.632 214.177 18.632C215.633 18.632 216.809 19 217.705 19.736C218.601 20.472 219.081 21.48 219.145 22.76H216.961C216.913 22.072 216.633 21.52 216.121 21.104C215.625 20.688 214.953 20.48 214.105 20.48C213.321 20.48 212.697 20.648 212.233 20.984C211.769 21.32 211.537 21.76 211.537 22.304C211.537 22.736 211.673 23.096 211.945 23.384C212.233 23.656 212.585 23.88 213.001 24.056C213.433 24.216 214.025 24.4 214.777 24.608C215.721 24.864 216.489 25.12 217.081 25.376C217.673 25.616 218.177 25.984 218.593 26.48C219.025 26.976 219.249 27.624 219.265 28.424C219.265 29.144 219.065 29.792 218.665 30.368C218.265 30.944 217.697 31.4 216.961 31.736C216.241 32.056 215.409 32.216 214.465 32.216Z"
        fill="#343434" />
</svg>